#!OML:ASF H:\Pregnant\Project 1\Capture day 1\Session 1\femalepreg.ASF
:FULLY-SPECIFIED
:DEGREES
521
root 17.091 14.8497 25.5164 355.878 -107.533 -338.139
lowerback -14.9471 -4.77308 6.69173
upperback -2.38857 -8.12797 6.07993
thorax 5.78892 -4.05192 1.10256
lowerneck -10.4509 13.4899 17.413
upperneck 24.3143 18.4661 -13.0396
head 12.7622 8.41356 -4.82738
rclavicle -4.9398e-014 -3.26007e-014
rhumerus -37.8272 -17.933 -21.7051
rradius 29.4153
rwrist -13.0983
rhand -31.2363 -31.4611
rfingers 7.12502
rthumb -4.51132 -61.3931
lclavicle -4.9398e-014 -3.26007e-014
lhumerus -19.6877 -9.37337 87.6219
lradius 50.499
lwrist 35.6143
lhand -25.3433 -0.258394
lfingers 7.12502
lthumb 1.18002 29.7181
rfemur -36.2175 21.5474 26.019
rtibia 43.9372
rfoot -21.8041 -4.34091
rtoes -0.943319
lfemur -31.2099 -7.9042 -15.5844
ltibia 49.322
lfoot -25.42 35.9427
ltoes 5.99812
522
root 17.08 14.8075 25.4971 355.663 -107.784 -338.263
lowerback -14.7497 -4.87149 6.65036
upperback -2.13656 -8.24984 6.12988
thorax 5.96234 -4.10093 1.16086
lowerneck -10.3777 13.5556 17.4091
upperneck 24.2475 18.5937 -13.1425
head 12.7567 8.46269 -4.8422
rclavicle -4.96962e-015 -1.59028e-014
rhumerus -38.3766 -20.1395 -20.5938
rradius 29.7762
rwrist -13.3342
rhand -32.2335 -31.7729
rfingers 7.12502
rthumb -5.47416 -61.6822
lclavicle -4.96962e-015 -1.59028e-014
lhumerus -19.7648 -9.26315 87.7501
lradius 49.983
lwrist 35.544
lhand -24.6453 -0.140023
lfingers 7.12502
lthumb 1.85417 29.8317
rfemur -36.1425 21.488 26.3248
rtibia 44.619
rfoot -22.0869 -4.06271
rtoes -0.887432
lfemur -31.3357 -8.21004 -15.7171
ltibia 50.409
lfoot -25.7859 36.744
ltoes 7.44073
523
root 17.0688 14.7658 25.4772 355.513 -108.005 -338.467
lowerback -14.5329 -4.96963 6.5664
upperback -1.89914 -8.36101 6.17017
thorax 6.11416 -4.14696 1.23677
lowerneck -10.3107 13.6053 17.3411
upperneck 24.1761 18.6997 -13.2116
head 12.7347 8.5001 -4.83879
rclavicle 2.17669e-014 1.35174e-014
rhumerus -39.1157 -22.2004 -19.5484
rradius 30.3151
rwrist -13.8317
rhand -33.2475 -32.2942
rfingers 7.12502
rthumb -6.45316 -62.1759
lclavicle 2.17669e-014 1.35174e-014
lhumerus -19.8752 -9.14566 87.8908
lradius 49.4517
lwrist 35.5152
lhand -23.8988 -0.00563974
lfingers 7.12502
lthumb 2.57508 29.9586
rfemur -36.0482 21.4234 26.5983
rtibia 45.2958
rfoot -22.3839 -3.81174
rtoes -0.818638
lfemur -31.5084 -8.52126 -15.8354
ltibia 51.5945
lfoot -25.8809 37.3301
ltoes 8.46589
524
root 17.0573 14.7257 25.4565 355.413 -108.192 -338.728
lowerback -14.3029 -5.06985 6.4479
upperback -1.67965 -8.46657 6.20182
thorax 6.24324 -4.19258 1.3257
lowerneck -10.2502 13.6421 17.2165
upperneck 24.1117 18.7884 -13.2484
head 12.7028 8.52768 -4.81825
rclavicle 5.81445e-014 -8.18993e-014
rhumerus -40.0313 -24.0894 -18.5847
rradius 31.0283
rwrist -14.6111
rhand -34.2604 -32.9797
rfingers 7.12502
rthumb -7.43092 -62.8292
lclavicle 5.81445e-014 -8.18993e-014
lhumerus -20.0082 -9.00996 88.041
lradius 48.8865
lwrist 35.5032
lhand -23.1076 0.138831
lfingers 7.12502
lthumb 3.33917 30.0924
rfemur -35.9296 21.3604 26.84
rtibia 45.9473
rfoot -22.689 -3.59115
rtoes -0.702185
lfemur -31.729 -8.86333 -15.9273
ltibia 52.8685
lfoot -25.6971 37.7068
ltoes 9.12682
525
root 17.0452 14.6881 25.4355 355.341 -108.348 -339.016
lowerback -14.0748 -5.1542 6.32549
upperback -1.47764 -8.54685 6.20537
thorax 6.35101 -4.22654 1.39293
lowerneck -10.205 13.6587 17.0534
upperneck 24.0689 18.8385 -13.2286
head 12.6637 8.53968 -4.7782
rclavicle -3.99557e-014 4.92986e-014
rhumerus -41.1409 -25.8521 -17.6715
rradius 31.8565
rwrist -15.6268
rhand -35.2824 -33.8671
rfingers 7.12502
rthumb -8.41731 -63.6794
lclavicle -3.99557e-014 4.92986e-014
lhumerus -20.156 -8.91347 88.1863
lradius 48.2756
lwrist 35.4925
lhand -22.325 0.300825
lfingers 7.12502
lthumb 4.09492 30.2412
rfemur -35.7836 21.3129 27.0551
rtibia 46.5551
rfoot -22.9931 -3.42247
rtoes -0.547615
lfemur -31.9965 -9.2724 -15.9767
ltibia 54.2119
lfoot -25.2956 37.8815
ltoes 9.5691
526
root 17.0324 14.654 25.4146 355.31 -108.471 -339.335
lowerback -13.8516 -5.2421 6.19089
upperback -1.29508 -8.62894 6.20115
thorax 6.4411 -4.2629 1.45899
lowerneck -10.1669 13.6699 16.8463
upperneck 24.0408 18.8818 -13.183
head 12.6222 8.54657 -4.72339
rclavicle -7.85199e-015 -9.54166e-015
rhumerus -42.3565 -27.5123 -16.8123
rradius 32.7457
rwrist -16.8247
rhand -36.1832 -34.6235
rfingers 7.12502
rthumb -9.28661 -64.3989
lclavicle -7.85199e-015 -9.54166e-015
lhumerus -20.3253 -8.79368 88.328
lradius 47.6276
lwrist 35.4662
lhand -21.5737 0.462823
lfingers 7.12502
lthumb 4.82038 30.388
rfemur -35.6105 21.2765 27.2375
rtibia 47.102
rfoot -23.2873 -3.30527
rtoes -0.377665
lfemur -32.3134 -9.76361 -15.9859
ltibia 55.6039
lfoot -24.6824 37.8681
ltoes 9.8663
527
root 17.0187 14.6237 25.3943 355.3 -108.565 -339.65
lowerback -13.647 -5.3279 6.07054
upperback -1.13243 -8.71063 6.18688
thorax 6.51661 -4.29957 1.50632
lowerneck -10.142 13.6784 16.6099
upperneck 24.0322 18.9212 -13.1183
head 12.5844 8.54977 -4.65764
rclavicle -1.15295e-014 -2.46493e-014
rhumerus -43.67 -29.1087 -15.9869
rradius 33.6452
rwrist -18.1422
rhand -36.8669 -35.0061
rfingers 7.12502
rthumb -9.94628 -64.7511
lclavicle -1.15295e-014 -2.46493e-014
lhumerus -20.5077 -8.65654 88.4609
lradius 46.9353
lwrist 35.4074
lhand -20.879 0.622377
lfingers 7.12502
lthumb 5.49122 30.5312
rfemur -35.4169 21.2558 27.3942
rtibia 47.5705
rfoot -23.5583 -3.23387
rtoes -0.176249
lfemur -32.6882 -10.3226 -15.9439
ltibia 57.0233
lfoot -23.8146 37.6907
ltoes 9.93908
528
root 17.0041 14.5977 25.3745 355.253 -108.637 -339.893
lowerback -13.4756 -5.38815 6.01095
upperback -0.990949 -8.76614 6.13901
thorax 6.57338 -4.32162 1.48864
lowerneck -10.1284 13.6709 16.3912
upperneck 24.0519 18.9259 -13.0247
head 12.5525 8.54092 -4.59082
rclavicle 5.23798e-014 -5.08889e-014
rhumerus -45.1543 -30.6522 -15.1655
rradius 34.5311
rwrist -19.5566
rhand -37.372 -35.1465
rfingers 7.12502
rthumb -10.4335 -64.8676
lclavicle 5.23798e-014 -5.08889e-014
lhumerus -20.7145 -8.57741 88.5637
lradius 46.2027
lwrist 35.3169
lhand -20.2588 0.777259
lfingers 7.12502
lthumb 6.09001 30.6697
rfemur -35.203 21.2529 27.5484
rtibia 47.9477
rfoot -23.7947 -3.21314
rtoes -0.00332761
lfemur -33.1255 -10.933 -15.8288
ltibia 58.4557
lfoot -22.6299 37.38
ltoes 9.60894
529
root 16.9885 14.5774 25.3557 355.156 -108.691 -340.039
lowerback -13.348 -5.43445 6.01392
upperback -0.866492 -8.81411 6.07223
thorax 6.62389 -4.33797 1.41561
lowerneck -10.1251 13.6597 16.1903
upperneck 24.0926 18.9162 -12.9096
head 12.528 8.52843 -4.52126
rclavicle 2.49475e-014 1.74931e-014
rhumerus -46.7568 -32.1129 -14.3837
rradius 35.3875
rwrist -21.0583
rhand -37.6658 -34.9866
rfingers 7.12502
rthumb -10.7169 -64.6932
lclavicle 2.49475e-014 1.74931e-014
lhumerus -20.9351 -8.50883 88.6293
lradius 45.4303
lwrist 35.1765
lhand -19.7199 0.945634
lfingers 7.12502
lthumb 6.61023 30.8225
rfemur -34.9756 21.2694 27.7042
rtibia 48.2226
rfoot -23.9902 -3.23254
rtoes 0.133518
lfemur -33.6317 -11.5497 -15.6349
ltibia 59.885
lfoot -21.1363 36.924
ltoes 8.82267
530
root 16.9722 14.5626 25.3393 355.046 -108.729 -340.108
lowerback -13.2752 -5.45378 6.09792
upperback -0.760829 -8.84022 5.98143
thorax 6.66873 -4.34068 1.27348
lowerneck -10.1632 13.6423 15.9913
upperneck 24.1674 18.8854 -12.7607
head 12.5178 8.50763 -4.44157
rclavicle 1.23246e-014 3.4191e-014
rhumerus -48.4779 -33.4894 -13.6295
rradius 36.1883
rwrist -22.6355
rhand -37.8913 -34.8807
rfingers 7.12502
rthumb -10.9344 -64.576
lclavicle 1.23246e-014 3.4191e-014
lhumerus -21.1486 -8.45275 88.6699
lradius 44.6018
lwrist 34.9663
lhand -19.2897 1.12645
lfingers 7.12502
lthumb 7.0255 30.9899
rfemur -34.7581 21.2976 27.8448
rtibia 48.3986
rfoot -24.1432 -3.27372
rtoes 0.223658
lfemur -34.2147 -12.17 -15.3655
ltibia 61.311
lfoot -19.7446 36.1884
ltoes 8.29594
531
root 16.9548 14.5511 25.3233 354.811 -108.769 -340
lowerback -13.2494 -5.44227 6.27236
upperback -0.671862 -8.84183 5.87816
thorax 6.70668 -4.32866 1.07048
lowerneck -10.2209 13.6122 15.8116
upperneck 24.2715 18.8258 -12.5871
head 12.5177 8.47664 -4.36061
rclavicle -2.28602e-015 3.81667e-014
rhumerus -50.3173 -34.7427 -12.9109
rradius 36.9136
rwrist -24.2731
rhand -37.9909 -34.7246
rfingers 7.12502
rthumb -11.0305 -64.4148
lclavicle -2.28602e-015 3.81667e-014
lhumerus -21.387 -8.40624 88.6819
lradius 43.7351
lwrist 34.6855
lhand -18.9947 1.30517
lfingers 7.12502
lthumb 7.31025 31.1589
rfemur -34.5387 21.3649 28.019
rtibia 48.4862
rfoot -24.2501 -3.3465
rtoes 0.277436
lfemur -34.8707 -12.7386 -15.0013
ltibia 62.724
lfoot -18.2933 35.2454
ltoes 7.42155
532
root 16.9367 14.5423 25.3087 354.495 -108.811 -339.758
lowerback -13.2626 -5.41096 6.51133
upperback -0.598254 -8.83164 5.78239
thorax 6.74205 -4.30953 0.839747
lowerneck -10.3194 13.5806 15.6113
upperneck 24.4103 18.7588 -12.3862
head 12.5329 8.44059 -4.26586
rclavicle -3.27995e-014 3.73715e-014
rhumerus -52.1899 -35.8563 -12.2632
rradius 37.5341
rwrist -25.9391
rhand -38.0339 -34.6612
rfingers 7.12502
rthumb -11.072 -64.3491
lclavicle -3.27995e-014 3.73715e-014
lhumerus -21.6307 -8.30205 88.6815
lradius 42.8151
lwrist 34.3229
lhand -18.8199 1.47763
lfingers 7.12502
lthumb 7.47903 31.3254
rfemur -34.3342 21.4556 28.2108
rtibia 48.5051
rfoot -24.3217 -3.42606
rtoes 0.316018
lfemur -35.595 -13.1849 -14.552
ltibia 64.1202
lfoot -17.1563 33.8746
ltoes 6.85839
533
root 16.9176 14.5351 25.2958 354.138 -108.864 -339.429
lowerback -13.3078 -5.34709 6.81723
upperback -0.54088 -8.79036 5.67782
thorax 6.76767 -4.27337 0.567224
lowerneck -10.4616 13.537 15.4039
upperneck 24.5897 18.6654 -12.1527
head 12.5644 8.39265 -4.16109
rclavicle 7.55382e-014 4.6118e-014
rhumerus -54.1155 -36.8525 -11.6563
rradius 38.0018
rwrist -27.5579
rhand -38.0147 -34.6631
rfingers 7.12502
rthumb -11.0534 -64.3521
lclavicle 7.55382e-014 4.6118e-014
lhumerus -21.8969 -8.16001 88.6631
lradius 41.8527
lwrist 33.8961
lhand -18.7751 1.62588
lfingers 7.12502
lthumb 7.52219 31.4721
rfemur -34.1455 21.5588 28.4097
rtibia 48.4687
rfoot -24.3658 -3.49532
rtoes 0.361484
lfemur -36.3785 -13.4711 -14.0632
ltibia 65.4628
lfoot -16.0442 32.1784
ltoes 5.84956
